<mxfile host="app.diagrams.net" modified="2023-08-05T02:01:32.506Z" agent="Mozilla/5.0 (Macintosh; Intel Mac OS X 10_15_7) AppleWebKit/537.36 (KHTML, like Gecko) Chrome/115.0.0.0 Safari/537.36" etag="EcNE4xJG95ljrCJMnxw5" version="21.6.6" type="github">
  <diagram id="Srn_F_eV9v9z-pr6K96W" name="第 1 页">
    <mxGraphModel dx="1026" dy="576" grid="1" gridSize="10" guides="1" tooltips="1" connect="1" arrows="1" fold="1" page="1" pageScale="1" pageWidth="827" pageHeight="1169" math="0" shadow="0">
      <root>
        <mxCell id="0" />
        <mxCell id="1" parent="0" />
        <mxCell id="yDyqHTI5UT8fJ4s7Zp6f-5" style="edgeStyle=orthogonalEdgeStyle;rounded=0;orthogonalLoop=1;jettySize=auto;html=1;" edge="1" parent="1" source="yDyqHTI5UT8fJ4s7Zp6f-1" target="yDyqHTI5UT8fJ4s7Zp6f-2">
          <mxGeometry relative="1" as="geometry" />
        </mxCell>
        <mxCell id="yDyqHTI5UT8fJ4s7Zp6f-1" value="A" style="rounded=0;whiteSpace=wrap;html=1;" vertex="1" parent="1">
          <mxGeometry x="210" y="220" width="120" height="60" as="geometry" />
        </mxCell>
        <mxCell id="yDyqHTI5UT8fJ4s7Zp6f-6" style="edgeStyle=orthogonalEdgeStyle;rounded=0;orthogonalLoop=1;jettySize=auto;html=1;" edge="1" parent="1" source="yDyqHTI5UT8fJ4s7Zp6f-2" target="yDyqHTI5UT8fJ4s7Zp6f-1">
          <mxGeometry relative="1" as="geometry" />
        </mxCell>
        <mxCell id="yDyqHTI5UT8fJ4s7Zp6f-7" style="edgeStyle=orthogonalEdgeStyle;rounded=0;orthogonalLoop=1;jettySize=auto;html=1;entryX=0;entryY=0.5;entryDx=0;entryDy=0;" edge="1" parent="1" source="yDyqHTI5UT8fJ4s7Zp6f-2" target="yDyqHTI5UT8fJ4s7Zp6f-3">
          <mxGeometry relative="1" as="geometry" />
        </mxCell>
        <mxCell id="yDyqHTI5UT8fJ4s7Zp6f-2" value="B" style="rounded=0;whiteSpace=wrap;html=1;" vertex="1" parent="1">
          <mxGeometry x="380" y="220" width="120" height="60" as="geometry" />
        </mxCell>
        <mxCell id="yDyqHTI5UT8fJ4s7Zp6f-8" style="edgeStyle=orthogonalEdgeStyle;rounded=0;orthogonalLoop=1;jettySize=auto;html=1;" edge="1" parent="1" source="yDyqHTI5UT8fJ4s7Zp6f-3">
          <mxGeometry relative="1" as="geometry">
            <mxPoint x="500" y="250" as="targetPoint" />
          </mxGeometry>
        </mxCell>
        <mxCell id="yDyqHTI5UT8fJ4s7Zp6f-9" style="edgeStyle=orthogonalEdgeStyle;rounded=0;orthogonalLoop=1;jettySize=auto;html=1;entryX=0;entryY=0.5;entryDx=0;entryDy=0;" edge="1" parent="1" source="yDyqHTI5UT8fJ4s7Zp6f-3" target="yDyqHTI5UT8fJ4s7Zp6f-4">
          <mxGeometry relative="1" as="geometry" />
        </mxCell>
        <mxCell id="yDyqHTI5UT8fJ4s7Zp6f-3" value="D" style="rounded=0;whiteSpace=wrap;html=1;" vertex="1" parent="1">
          <mxGeometry x="550" y="220" width="120" height="60" as="geometry" />
        </mxCell>
        <mxCell id="yDyqHTI5UT8fJ4s7Zp6f-10" style="edgeStyle=orthogonalEdgeStyle;rounded=0;orthogonalLoop=1;jettySize=auto;html=1;" edge="1" parent="1" source="yDyqHTI5UT8fJ4s7Zp6f-4">
          <mxGeometry relative="1" as="geometry">
            <mxPoint x="670" y="250" as="targetPoint" />
          </mxGeometry>
        </mxCell>
        <mxCell id="yDyqHTI5UT8fJ4s7Zp6f-4" value="C" style="rounded=0;whiteSpace=wrap;html=1;" vertex="1" parent="1">
          <mxGeometry x="720" y="220" width="120" height="60" as="geometry" />
        </mxCell>
        <mxCell id="yDyqHTI5UT8fJ4s7Zp6f-15" style="edgeStyle=orthogonalEdgeStyle;rounded=0;orthogonalLoop=1;jettySize=auto;html=1;entryX=0.5;entryY=1;entryDx=0;entryDy=0;dashed=1;" edge="1" parent="1" source="yDyqHTI5UT8fJ4s7Zp6f-11" target="yDyqHTI5UT8fJ4s7Zp6f-1">
          <mxGeometry relative="1" as="geometry" />
        </mxCell>
        <mxCell id="yDyqHTI5UT8fJ4s7Zp6f-11" value="head" style="ellipse;shape=cloud;whiteSpace=wrap;html=1;" vertex="1" parent="1">
          <mxGeometry x="210" y="340" width="120" height="80" as="geometry" />
        </mxCell>
        <mxCell id="yDyqHTI5UT8fJ4s7Zp6f-13" style="edgeStyle=orthogonalEdgeStyle;rounded=0;orthogonalLoop=1;jettySize=auto;html=1;entryX=0.5;entryY=1;entryDx=0;entryDy=0;dashed=1;dashPattern=8 8;" edge="1" parent="1" source="yDyqHTI5UT8fJ4s7Zp6f-12" target="yDyqHTI5UT8fJ4s7Zp6f-4">
          <mxGeometry relative="1" as="geometry" />
        </mxCell>
        <mxCell id="yDyqHTI5UT8fJ4s7Zp6f-12" value="tail" style="ellipse;shape=cloud;whiteSpace=wrap;html=1;" vertex="1" parent="1">
          <mxGeometry x="720" y="330" width="120" height="80" as="geometry" />
        </mxCell>
      </root>
    </mxGraphModel>
  </diagram>
</mxfile>
